<svg width="53" height="69" viewBox="0 0 53 69" fill="none" xmlns="http://www.w3.org/2000/svg">
    <path d="M0.25 60.75C0.25 62.7391 1.04018 64.6468 2.4467 66.0533C3.85322 67.4598 5.76088 68.25 7.75 68.25H45.25C47.2391 68.25 49.1468 67.4598 50.5533 66.0533C51.9598 64.6468 52.75 62.7391 52.75 60.75V8.25C52.75 6.26088 51.9598 4.35322 50.5533 2.9467C49.1468 1.54018 47.2391 0.75 45.25 0.75H7.75C5.76088 0.75 3.85322 1.54018 2.4467 2.9467C1.04018 4.35322 0.25 6.26088 0.25 8.25V60.75ZM45.25 15.75H26.5V12H45.25V15.75ZM45.25 23.25H26.5V19.5H45.25V23.25ZM45.25 30.75H26.5V27H45.25V30.75ZM7.75 49.5H45.25V53.25H7.75V49.5ZM7.75 42H45.25V45.75H7.75V42ZM7.75 34.5H45.25V38.25H7.75V34.5ZM7.75 12H22.75V30.75H7.75V12Z" fill="url(#paint0_linear_31_212)"/>
    <defs>
    <linearGradient id="paint0_linear_31_212" x1="26.5" y1="0.75" x2="26.5" y2="68.25" gradientUnits="userSpaceOnUse">
        <stop stop-color="#001F60"/>
        <stop offset="1" stop-color="#0040C6"/>
    </linearGradient>
    </defs>
</svg>
