<svg width="61" height="55" viewBox="0 0 61 55" fill="none" xmlns="http://www.w3.org/2000/svg">
    <path d="M58.625 49.5938H56.2812V2.71875C56.2812 2.09715 56.0343 1.50101 55.5948 1.06147C55.1552 0.621931 54.5591 0.375 53.9375 0.375H37.5312C36.9096 0.375 36.3135 0.621931 35.874 1.06147C35.4344 1.50101 35.1875 2.09715 35.1875 2.71875V14.4375H21.125C20.5034 14.4375 19.9073 14.6844 19.4677 15.124C19.0282 15.5635 18.7812 16.1596 18.7812 16.7812V28.5H7.0625C6.4409 28.5 5.84476 28.7469 5.40522 29.1865C4.96568 29.626 4.71875 30.2221 4.71875 30.8438V49.5938H2.375C1.7534 49.5938 1.15726 49.8407 0.717718 50.2802C0.27818 50.7198 0.03125 51.3159 0.03125 51.9375C0.03125 52.5591 0.27818 53.1552 0.717718 53.5948C1.15726 54.0343 1.7534 54.2812 2.375 54.2812H58.625C59.2466 54.2812 59.8427 54.0343 60.2823 53.5948C60.7218 53.1552 60.9688 52.5591 60.9688 51.9375C60.9688 51.3159 60.7218 50.7198 60.2823 50.2802C59.8427 49.8407 59.2466 49.5938 58.625 49.5938ZM39.875 5.0625H51.5938V49.5938H39.875V5.0625ZM23.4688 19.125H35.1875V49.5938H23.4688V19.125ZM9.40625 33.1875H18.7812V49.5938H9.40625V33.1875Z" fill="url(#paint0_linear_31_206)"/>
    <defs>
    <linearGradient id="paint0_linear_31_206" x1="30.5" y1="0.375" x2="30.5" y2="54.2812" gradientUnits="userSpaceOnUse">
        <stop stop-color="#001F60"/>
        <stop offset="1" stop-color="#0040C6"/>
    </linearGradient>
    </defs>
</svg>
