<svg width="50" height="50" viewBox="0 0 86 86" fill="none" xmlns="http://www.w3.org/2000/svg">
    <path d="M43 21.5L39.1569 25.2437L54.1531 40.3125H21.5V45.6875H54.1531L39.1569 60.6649L43 64.5L64.5 43L43 21.5Z" fill="#001F60" fill-opacity="0.5" />
    <path d="M43 80.625C35.5585 80.625 28.2841 78.4184 22.0967 74.2841C15.9093 70.1498 11.0868 64.2736 8.23905 57.3985C5.3913 50.5234 4.6462 42.9583 6.09797 35.6597C7.54974 28.3612 11.1332 21.6571 16.3951 16.3951C21.6571 11.1332 28.3612 7.54974 35.6597 6.09797C42.9583 4.6462 50.5234 5.3913 57.3985 8.23905C64.2736 11.0868 70.1498 15.9093 74.2841 22.0967C78.4184 28.2841 80.625 35.5585 80.625 43C80.6136 52.9753 76.6459 62.5387 69.5923 69.5923C62.5387 76.6459 52.9753 80.6136 43 80.625ZM43 10.75C36.6216 10.75 30.3864 12.6414 25.0829 16.1851C19.7794 19.7288 15.6458 24.7656 13.2049 30.6585C10.764 36.5514 10.1253 43.0358 11.3697 49.2917C12.6141 55.5476 15.6856 61.294 20.1958 65.8042C24.7061 70.3145 30.4525 73.386 36.7084 74.6303C42.9642 75.8747 49.4486 75.2361 55.3416 72.7951C61.2345 70.3542 66.2712 66.2206 69.8149 60.9172C73.3586 55.6137 75.25 49.3785 75.25 43C75.2401 34.4498 71.8391 26.2527 65.7932 20.2068C59.7473 14.1609 51.5502 10.76 43 10.75Z" fill="#001F60" fill-opacity="0.5" />
</svg>