<svg width="121" height="120" viewBox="0 0 121 120" fill="none" xmlns="http://www.w3.org/2000/svg">
<path d="M9.67311 79.3488C17.6219 99.6595 37.3822 114.05 60.4996 114.05C90.6235 114.05 115.045 89.6281 115.045 59.5041M111.326 39.6595C103.387 19.3438 83.6219 4.95868 60.4996 4.95868C30.3756 4.95868 5.9541 29.3802 5.9541 59.5041M45.6235 79.3388H5.9541V119.008M115.045 0V39.6694H75.3756" stroke="white" stroke-width="5"/>
<path d="M75.4093 56.8596C75.7316 57.6661 75.8286 58.5449 75.6902 59.4023C75.5517 60.2596 75.1829 61.0633 74.6232 61.7273L74.3476 62.0293L63.0256 73.3513C62.4114 73.9661 61.6416 74.4025 60.7985 74.6135C59.9555 74.8246 59.0709 74.8025 58.2394 74.5496L57.856 74.413L43.6843 68.7448C42.8908 68.427 42.1968 67.9028 41.6743 67.2264C41.1517 66.55 40.8196 65.7461 40.7124 64.8981L39.1905 52.7253C39.1545 52.4138 39.109 52.083 39.0563 51.7427L38.8837 50.6785L38.7831 50.1225L38.4475 48.3897L38.1935 47.2033L37.7932 45.4178L37.2468 43.129L36.2977 39.4093L35.8807 37.861C35.7732 37.4703 35.7656 37.0589 35.8585 36.6644C35.9514 36.27 36.1418 35.9052 36.4123 35.6035C36.6827 35.3017 37.0246 35.0727 37.4066 34.9374C37.7886 34.8022 38.1984 34.765 38.5985 34.8292L38.9484 34.9107L41.6136 35.6177L44.1253 36.2504L46.4141 36.7969L48.1997 37.1971L49.3884 37.4488L51.1188 37.7867L52.2141 37.9785L53.2399 38.1318L65.8945 39.7137C66.6755 39.8131 67.42 40.1035 68.0621 40.5591C68.7042 41.0148 69.2241 41.6217 69.5758 42.3261L69.7412 42.688L75.4093 56.8596ZM70.9587 58.638L65.2905 44.4687L54.0931 43.069L53.1441 42.954C51.3809 42.7191 49.6282 42.4112 47.8905 42.0313L46.0067 41.6214L53.887 49.5018C54.9063 49.2286 55.9872 49.2993 56.9621 49.7031C57.937 50.1068 58.7515 50.821 59.2791 51.7348C59.8068 52.6487 60.0182 53.7111 59.8804 54.7573C59.7427 55.8035 59.2636 56.775 58.5175 57.5212C57.7713 58.2673 56.7998 58.7464 55.7536 58.8841C54.7074 59.0218 53.645 58.8105 52.7312 58.2828C51.8173 57.7552 51.1032 56.9407 50.6994 55.9658C50.2957 54.9909 50.2249 53.9099 50.4981 52.8907L42.6178 45.0104L42.8263 45.9499L43.2217 47.8289C43.4615 48.9998 43.6693 50.177 43.8449 51.3592L45.465 64.2942L59.6343 69.9623L70.9587 58.638ZM78.8534 64.3014C79.2664 64.7137 79.5147 65.2627 79.5518 65.8451C79.5889 66.4276 79.4121 67.0036 79.0547 67.465L78.8534 67.6903L68.6866 77.8571C68.2563 78.2915 67.6762 78.545 67.0651 78.5657C66.454 78.5865 65.8581 78.3728 65.3994 77.9686C64.9406 77.5643 64.6537 77 64.5974 76.3912C64.541 75.7823 64.7196 75.175 65.0964 74.6934L65.2977 74.4681L75.4645 64.3014C75.9139 63.852 76.5234 63.5996 77.1589 63.5996C77.7944 63.5996 78.4039 63.852 78.8534 64.3014Z" fill="white"/>
</svg>
