                <svg width="50" height="50" viewBox="0 0 86 86" fill="none" xmlns="http://www.w3.org/2000/svg">
                  <path d="M43 64.5L46.8431 60.7563L31.8469 45.6875L64.5 45.6875L64.5 40.3125L31.8469 40.3125L46.8431 25.3351L43 21.5L21.5 43L43 64.5Z" fill="#001F60" fill-opacity="0.5" />
                  <path d="M43 5.37498C50.4415 5.37498 57.7159 7.58165 63.9033 11.7159C70.0907 15.8502 74.9132 21.7264 77.761 28.6015C80.6087 35.4766 81.3538 43.0417 79.902 50.3403C78.4503 57.6388 74.8668 64.3429 69.6049 69.6049C64.3429 74.8668 57.6388 78.4503 50.3403 79.902C43.0417 81.3538 35.4766 80.6087 28.6015 77.7609C21.7264 74.9132 15.8502 70.0907 11.7159 63.9033C7.58165 57.7159 5.37499 50.4415 5.37499 43C5.38637 33.0247 9.35408 23.4612 16.4077 16.4077C23.4613 9.35407 33.0247 5.38636 43 5.37498ZM43 75.25C49.3784 75.25 55.6136 73.3586 60.9171 69.8149C66.2206 66.2712 70.3542 61.2344 72.7951 55.3415C75.236 49.4486 75.8747 42.9642 74.6303 36.7083C73.3859 30.4524 70.3144 24.706 65.8042 20.1958C61.2939 15.6855 55.5475 12.614 49.2916 11.3697C43.0358 10.1253 36.5514 10.7639 30.6584 13.2049C24.7655 15.6458 19.7288 19.7794 16.1851 25.0828C12.6414 30.3863 10.75 36.6215 10.75 43C10.7599 51.5502 14.1609 59.7473 20.2068 65.7932C26.2527 71.8391 34.4498 75.24 43 75.25Z" fill="#001F60" fill-opacity="0.5" />
                </svg>