<svg width="75" height="75" viewBox="0 0 75 75" fill="none" xmlns="http://www.w3.org/2000/svg">
<path d="M28.2316 18.6345L20.2847 26.5626C18.8253 28.0188 17.4847 29.3532 16.4253 30.5626C15.7094 31.3607 15.0623 32.2179 14.4909 33.1251L14.4159 33.047L14.1191 32.7532C12.7367 31.4132 11.1119 30.3485 9.33156 29.6157L8.94718 29.4595L7.76281 28.9907C7.39396 28.8453 7.06714 28.6103 6.81184 28.307C6.55654 28.0037 6.3808 27.6415 6.30048 27.2533C6.22016 26.865 6.2378 26.4629 6.35179 26.0831C6.46579 25.7034 6.67256 25.358 6.95343 25.0782C10.4534 21.5845 14.6566 17.3938 16.6878 16.5532C18.4512 15.8133 20.3824 15.5659 22.2753 15.8376C23.9816 16.0907 25.5941 16.9688 28.2316 18.6345ZM41.8034 60.3532C42.4441 61.0032 42.8659 61.4626 43.2534 61.9532C43.7597 62.6001 44.2128 63.2876 44.6097 64.0095C45.0534 64.822 45.4003 65.6876 46.0909 67.422C46.2271 67.7494 46.4418 68.0383 46.716 68.2631C46.9903 68.4879 47.3157 68.6417 47.6635 68.7109C48.0113 68.7801 48.3708 68.7625 48.7103 68.6598C49.0497 68.5571 49.3586 68.3724 49.6097 68.122L49.8722 67.8626C53.3722 64.372 57.5753 60.1813 58.4191 58.1595C59.1602 56.403 59.4076 54.4775 59.1347 52.5907C58.8816 50.8876 58.0034 49.2782 56.3316 46.647L48.3566 54.597C46.8628 56.0876 45.4941 57.4532 44.2534 58.522C43.5128 59.1657 42.7003 59.8032 41.8034 60.3532Z" fill="url(#paint0_linear_28_970)"/>
<path fill-rule="evenodd" clip-rule="evenodd" d="M45.1473 51.1781L63.4191 32.9594C66.0504 30.3375 67.366 29.025 68.0566 27.3594C68.7504 25.6875 68.7504 23.8344 68.7504 20.125V18.3531C68.7504 12.6469 68.7504 9.79375 66.9723 8.02187C65.1941 6.25 62.3348 6.25 56.6129 6.25H54.8316C51.1129 6.25 49.2535 6.25 47.5816 6.94062C45.9066 7.63125 44.591 8.94375 41.9566 11.5656L23.6879 29.7844C20.6129 32.8469 18.7066 34.75 17.9691 36.5844C17.7392 37.1414 17.6203 37.738 17.6191 38.3406C17.6191 40.8469 19.641 42.8656 23.6879 46.9L24.2316 47.4406L30.6004 40.975C30.8165 40.7557 31.0736 40.581 31.3572 40.461C31.6407 40.3411 31.9451 40.2781 32.253 40.2758C32.5609 40.2735 32.8662 40.3318 33.1516 40.4475C33.4369 40.5632 33.6967 40.7339 33.916 40.95C34.1354 41.1661 34.31 41.4232 34.43 41.7068C34.5499 41.9903 34.6129 42.2948 34.6152 42.6026C34.6175 42.9105 34.5592 43.2159 34.4435 43.5012C34.3278 43.7865 34.1571 44.0463 33.941 44.2656L27.5504 50.75L27.9785 51.1781C32.0254 55.2094 34.0504 57.2281 36.5629 57.2281C37.1191 57.2281 37.6504 57.1313 38.1848 56.9344C40.0691 56.2406 41.9941 54.3219 45.1473 51.1781ZM53.7316 29.7844C52.5918 30.92 51.0484 31.5576 49.4395 31.5576C47.8305 31.5576 46.2871 30.92 45.1473 29.7844C44.5839 29.2234 44.1369 28.5567 43.8319 27.8226C43.5269 27.0884 43.3699 26.3012 43.3699 25.5063C43.3699 24.7113 43.5269 23.9241 43.8319 23.1899C44.1369 22.4558 44.5839 21.7891 45.1473 21.2281C46.2871 20.0925 47.8305 19.4549 49.4395 19.4549C51.0484 19.4549 52.5918 20.0925 53.7316 21.2281C54.295 21.7891 54.742 22.4558 55.047 23.1899C55.352 23.9241 55.509 24.7113 55.509 25.5063C55.509 26.3012 55.352 27.0884 55.047 27.8226C54.742 28.5567 54.295 29.2234 53.7316 29.7844Z" fill="url(#paint1_linear_28_970)"/>
<defs>
<linearGradient id="paint0_linear_28_970" x1="32.7468" y1="15.7305" x2="32.7468" y2="68.7524" gradientUnits="userSpaceOnUse">
<stop stop-color="#001F60"/>
<stop offset="1" stop-color="#0040C6"/>
</linearGradient>
<linearGradient id="paint1_linear_28_970" x1="43.1848" y1="6.25" x2="43.1848" y2="57.2281" gradientUnits="userSpaceOnUse">
<stop stop-color="#001F60"/>
<stop offset="1" stop-color="#0040C6"/>
</linearGradient>
</defs>
</svg>
