<svg width="100" height="100" viewBox="0 0 100 100" fill="none" xmlns="http://www.w3.org/2000/svg">
<path d="M0 20C0 12.475 3.9 4.6 10 0C10 4.225 13.45 10 20 10C23.9782 10 27.7936 11.5804 30.6066 14.3934C33.4197 17.2064 35 21.0218 35 25C35 26.93 34.605 28.76 33.94 30.455C37.6488 33.3984 41.3011 36.4123 44.895 39.495L34.495 49.895C31.4135 46.3001 28.3997 42.6478 25.455 38.94C23.7193 39.6326 21.8688 39.9922 20 40C8.95 40 0 31.05 0 20ZM60.76 54.24L67.465 47.535C70.5699 49.1335 74.0078 49.978 77.5 50C83.4674 50 89.1903 47.6295 93.4099 43.4099C97.6295 39.1903 100 33.4674 100 27.5C100 23.875 99.06 20.495 97.535 17.465L80 35L70 25L87.535 7.465C84.4301 5.86651 80.9922 5.02203 77.5 5C71.5326 5 65.8097 7.37053 61.5901 11.5901C57.3705 15.8097 55 21.5326 55 27.5C55 31.125 55.94 34.505 57.465 37.535L5 90L15 100L49.24 65.76C58.6569 75.4218 68.6359 84.5193 79.125 93.005L86.25 98.75L93.75 91.25L88.005 84.125C79.5193 73.6359 70.4218 63.6569 60.76 54.24Z" fill="white"/>
</svg>
