<svg width="75" height="75" viewBox="0 0 75 75" fill="none" xmlns="http://www.w3.org/2000/svg">
<path d="M53.5938 64.6875L34.6875 45.625C33.6458 46.0417 32.5917 46.3542 31.525 46.5625C30.4583 46.7708 29.325 46.875 28.125 46.875C22.9167 46.875 18.4896 45.0521 14.8438 41.4062C11.1979 37.7604 9.375 33.3333 9.375 28.125C9.375 26.25 9.63542 24.4667 10.1562 22.775C10.6771 21.0833 11.4062 19.4812 12.3438 17.9688L23.75 29.375L29.375 23.75L17.9688 12.3438C19.4792 11.4062 21.0813 10.6771 22.775 10.1562C24.4688 9.63542 26.2521 9.375 28.125 9.375C33.3333 9.375 37.7604 11.1979 41.4062 14.8438C45.0521 18.4896 46.875 22.9167 46.875 28.125C46.875 29.3229 46.7708 30.4563 46.5625 31.525C46.3542 32.5938 46.0417 33.6479 45.625 34.6875L64.6875 53.5938C65.3125 54.2188 65.625 54.974 65.625 55.8594C65.625 56.7448 65.3125 57.5 64.6875 58.125L58.125 64.6875C57.5 65.3125 56.7448 65.625 55.8594 65.625C54.974 65.625 54.2188 65.3125 53.5938 64.6875ZM55.8594 58.0469L57.9687 55.9375L37.9687 35.9375C38.9062 34.8958 39.5833 33.6854 40 32.3063C40.4167 30.9271 40.625 29.5333 40.625 28.125C40.625 25 39.6229 22.2792 37.6187 19.9625C35.6146 17.6458 33.1271 16.2521 30.1562 15.7813L35.9375 21.5625C36.5625 22.1875 36.875 22.9167 36.875 23.75C36.875 24.5833 36.5625 25.3125 35.9375 25.9375L25.9375 35.9375C25.3125 36.5625 24.5833 36.875 23.75 36.875C22.9167 36.875 22.1875 36.5625 21.5625 35.9375L15.7813 30.1562C16.25 33.125 17.6438 35.6125 19.9625 37.6187C22.2812 39.625 25.0021 40.6271 28.125 40.625C29.4792 40.625 30.8333 40.4167 32.1875 40C33.5417 39.5833 34.7656 38.9323 35.8594 38.0469L55.8594 58.0469Z" fill="url(#paint0_linear_31_213)"/>
<defs>
<linearGradient id="paint0_linear_31_213" x1="37.5" y1="9.375" x2="37.5" y2="65.625" gradientUnits="userSpaceOnUse">
<stop stop-color="#001F60"/>
<stop offset="1" stop-color="#0040C6"/>
</linearGradient>
</defs>
</svg>
